<svg width="24" height="24" viewBox="0 0 24 24" fill="none" xmlns="http://www.w3.org/2000/svg">
<path d="M9.49121 6.32895V4.44448C9.49121 3.69446 10.1049 3.08081 10.8549 3.08081H13.146C13.8961 3.08081 14.5097 3.69446 14.5097 4.44448V6.32895" stroke="#309689" stroke-width="2" stroke-miterlimit="22.9256" stroke-linecap="round" stroke-linejoin="round"/>
<path d="M21.3524 12.423V19.6493C21.3524 20.3474 20.7809 20.9189 20.0827 20.9189H3.91611C3.21794 20.9189 2.64648 20.3476 2.64648 19.6493V12.4653" stroke="#309689" stroke-width="2" stroke-miterlimit="22.9256" stroke-linecap="round" stroke-linejoin="round"/>
<path d="M10.3068 14.5605C5.82971 14.3045 1.80029 13.0242 1.80029 10.7197V7.71506C1.80029 7.01579 2.37061 6.44543 3.06992 6.44543H20.9294C21.6286 6.44543 22.199 7.01584 22.199 7.71506V10.7197C22.199 13.0387 18.1187 14.3205 13.6078 14.5652" stroke="#309689" stroke-width="2" stroke-miterlimit="22.9256" stroke-linecap="round" stroke-linejoin="round"/>
<path fill-rule="evenodd" clip-rule="evenodd" d="M10.9575 13.7894H13.0436V14.762C13.0436 15.2969 12.606 15.7346 12.071 15.7346H11.9301C11.3952 15.7346 10.9575 15.2969 10.9575 14.762V13.7894Z" stroke="#309689" stroke-width="2" stroke-miterlimit="22.9256" stroke-linecap="round" stroke-linejoin="round"/>
</svg>
