<svg width="40" height="41" viewBox="0 0 40 41" fill="none" xmlns="http://www.w3.org/2000/svg">
<g clip-path="url(#clip0_2002_2167)">
<path d="M19.0927 39.3263H4.47919C2.65689 39.3263 1.17969 37.8491 1.17969 36.0268V15.239C1.17969 13.4167 2.65696 11.9395 4.47919 11.9395H19.0928C20.843 11.9395 22.275 13.3021 22.3855 15.0244" stroke="#309689" stroke-width="2" stroke-miterlimit="10" stroke-linecap="round" stroke-linejoin="round"/>
<path d="M7.6875 11.9399V1.67383H15.8822V11.9399" stroke="#309689" stroke-width="2" stroke-miterlimit="10" stroke-linecap="round" stroke-linejoin="round"/>
<path d="M35.3021 39.3261H16.7897C14.8456 39.3261 13.2695 37.75 13.2695 35.8059V23.278C13.2695 21.3338 14.8455 19.7578 16.7897 19.7578H35.3021C37.2462 19.7578 38.8223 21.3338 38.8223 23.278V35.8059C38.8223 37.75 37.2462 39.3261 35.3021 39.3261Z" stroke="#309689" stroke-width="2" stroke-miterlimit="10" stroke-linecap="round" stroke-linejoin="round"/>
<path d="M22.4023 15.0234H29.6862V19.7581" stroke="#309689" stroke-width="2" stroke-miterlimit="10" stroke-linecap="round" stroke-linejoin="round"/>
<path d="M13.2695 31.874H38.8223" stroke="#309689" stroke-width="2" stroke-miterlimit="10" stroke-linecap="round" stroke-linejoin="round"/>
<path d="M22.4023 15.0234V19.7581" stroke="#309689" stroke-width="2" stroke-miterlimit="10" stroke-linecap="round" stroke-linejoin="round"/>
</g>
<defs>
<clipPath id="clip0_2002_2167">
<rect width="40" height="40" fill="white" transform="translate(0 0.5)"/>
</clipPath>
</defs>
</svg>
