<svg width="24" height="24" viewBox="0 0 24 24" fill="none" xmlns="http://www.w3.org/2000/svg">
<path d="M19.9703 10.2296C19.9703 16.4287 12 21.7422 12 21.7422C12 21.7422 4.02979 16.4287 4.02979 10.2296C4.02979 8.1158 4.8695 6.08854 6.36421 4.59383C7.85892 3.09912 9.88619 2.2594 12 2.2594C14.1139 2.2594 16.1411 3.09912 17.6358 4.59383C19.1305 6.08854 19.9703 8.1158 19.9703 10.2296Z" stroke="#309689" stroke-width="2" stroke-linecap="round" stroke-linejoin="round"/>
<path d="M12 12.8864C13.4673 12.8864 14.6568 11.6969 14.6568 10.2296C14.6568 8.76234 13.4673 7.57288 12 7.57288C10.5327 7.57288 9.34326 8.76234 9.34326 10.2296C9.34326 11.6969 10.5327 12.8864 12 12.8864Z" stroke="#309689" stroke-width="2" stroke-linecap="round" stroke-linejoin="round"/>
</svg>
