<svg width="134" height="60" viewBox="0 0 134 60" fill="none" xmlns="http://www.w3.org/2000/svg">
<g clip-path="url(#clip0_25_5928)">
<path d="M8.85058 25.1352C14.8129 23.0801 15.8278 17.7267 15.0667 12.8045C15.0667 12.6269 15.2189 12.5001 15.3711 12.5508C21.0798 15.3417 27.4988 21.4309 27.4988 30.5648C27.4988 37.5674 22.0693 43.7581 14.1787 43.7581C11.3631 43.8861 8.58499 43.0728 6.28294 41.4466C3.98089 39.8204 2.28596 37.4739 1.46566 34.7774C0.645365 32.0809 0.746424 29.188 1.75289 26.5553C2.75935 23.9226 4.61389 21.7001 7.02381 20.2385C7.17604 20.137 7.37902 20.2385 7.37902 20.4161C7.45513 21.3548 7.70885 23.7144 8.74909 25.1352H8.85058V25.1352Z" fill="#ADB5BD"/>
<path d="M44.2958 38.2018L44.7271 37.6944L46.0718 41.9568L45.8942 42.1344C44.8793 43.0732 43.357 43.5553 41.4034 43.5553H41.3273C39.5512 43.5553 38.1558 43.0478 37.1917 42.1091C36.2275 41.145 35.7201 39.6988 35.7201 37.872V26.2517H32.2949V21.5579H35.7201V15.9H40.9974V21.5579H45.1838V26.2517H40.9721V36.7303C40.9721 37.2123 41.0989 38.76 42.5705 38.76C43.3316 38.76 44.042 38.4809 44.2958 38.1765V38.2018ZM47.0866 43.0732V21.5833H52.364V43.0732H47.0866V43.0732ZM49.6999 12.8047C50.3261 12.8047 50.9383 12.9901 51.4593 13.3375C51.9802 13.6848 52.3867 14.1787 52.6275 14.7567C52.8683 15.3347 52.9325 15.9711 52.8122 16.5856C52.6919 17.2001 52.3923 17.7652 51.9513 18.2098C51.5103 18.6543 50.9476 18.9583 50.3341 19.0836C49.7205 19.2088 49.0837 19.1496 48.5037 18.9134C47.9238 18.6773 47.4268 18.2747 47.0753 17.7565C46.7237 17.2383 46.5335 16.6277 46.5285 16.0015C46.5285 14.2762 47.9747 12.8047 49.6999 12.8047ZM66.5468 21.0505C71.1137 21.0505 73.6255 23.5369 73.6255 28.0785V43.0478H68.3482V29.3471C68.2467 26.9114 67.0796 25.795 64.5932 25.795C62.3604 25.795 60.559 27.1651 59.6457 28.3322V43.0478H54.3683V21.6087H59.6457V23.8921C61.168 22.4206 63.6037 21.1013 66.5468 21.1013V21.0505ZM91.1828 23.816V13.7181H96.4601V43.0986H91.1828V40.8659C90.3752 41.7176 89.4038 42.3972 88.3268 42.8637C87.2498 43.3302 86.0896 43.5741 84.9159 43.5806C79.1565 43.5806 75.3 39.0645 75.3 32.3409C75.3 25.5921 79.1565 21.0759 84.9159 21.0759C86.0921 21.0812 87.2548 21.3271 88.3325 21.7983C89.4102 22.2695 90.3802 22.9562 91.1828 23.816ZM91.1828 28.3576C90.5946 27.5916 89.8431 26.9664 88.9828 26.5275C88.1226 26.0886 87.1753 25.847 86.2099 25.8204C82.9369 25.8204 80.755 28.4337 80.755 32.3409C80.755 36.2228 82.9369 38.8361 86.2099 38.8361C88.1128 38.8361 90.1933 37.8212 91.1828 36.3497V28.3576ZM108.791 21.0759C115.032 21.0759 119.371 25.8965 119.371 32.7469V34.1931H103.412C103.945 37.2123 106.33 39.1406 109.577 39.1406C111.632 39.1406 113.89 38.2526 115.184 36.9586L115.54 36.6541L118.051 40.2569L117.798 40.4853C115.42 42.5932 112.321 43.7021 109.146 43.5806C102.549 43.5806 97.9063 38.9376 97.9063 32.3156C97.855 30.8536 98.0996 29.3962 98.6255 28.0311C99.1514 26.666 99.9477 25.4212 100.967 24.3715C101.986 23.3217 103.206 22.4887 104.555 21.9224C105.904 21.3561 107.353 21.0681 108.816 21.0759H108.791ZM103.387 30.2097H114.22C113.916 26.9875 111.252 25.5159 108.791 25.5159C105.086 25.5159 103.691 28.3068 103.387 30.2351V30.2097ZM132.133 21.0759H132.513V26.404L132.057 26.3278C131.676 26.2517 131.194 26.201 130.712 26.201C129.012 26.201 126.652 27.3935 125.764 28.662V43.0478H120.487V21.5833H125.79V23.9683C127.54 22.1415 129.849 21.0759 132.133 21.0759V21.0759Z" fill="#ADB5BD"/>
</g>
<defs>
<clipPath id="clip0_25_5928">
<rect width="132.5" height="60" fill="white" transform="translate(0.916504)"/>
</clipPath>
</defs>
</svg>
