<svg width="123" height="60" viewBox="0 0 123 60" fill="none" xmlns="http://www.w3.org/2000/svg">
<g clip-path="url(#clip0_25_5927)">
<path fill-rule="evenodd" clip-rule="evenodd" d="M99.6341 25.7465C100.102 26.5536 100.255 27.4718 100.305 28.504L100.372 29.8799V39.5009L100.44 40.8782C100.575 43.1275 102.234 44.7907 104.501 44.9321L105.871 45V29.8799L105.939 28.504C105.995 27.4833 106.147 26.5478 106.622 25.735C107.106 24.9013 107.8 24.2096 108.636 23.7293C109.472 23.2491 110.42 22.9972 111.384 22.999C112.348 23.0007 113.294 23.2561 114.128 23.7393C114.963 24.2226 115.655 24.9169 116.136 25.7523C116.604 26.5594 116.749 27.4949 116.806 28.504L116.874 29.8756V39.5009L116.941 40.8782C117.083 43.139 118.729 44.8022 121.003 44.9321L122.373 45V28.504C122.373 25.5871 121.214 22.7896 119.152 20.7266C117.09 18.6636 114.293 17.504 111.376 17.5029C109.815 17.5012 108.271 17.8328 106.848 18.4754C105.425 19.118 104.156 20.0568 103.125 21.2291C102.094 20.0572 100.824 19.1186 99.4014 18.4759C97.9787 17.8331 96.4353 17.5009 94.8741 17.5014C92.5902 17.5014 90.4708 18.1944 88.7152 19.3913C87.644 18.1959 85.2474 17.5014 83.8715 17.5014V45L85.2474 44.9321C87.5487 44.7806 89.2119 43.1621 89.3014 40.8782L89.375 39.5009V29.8799L89.4428 28.504C89.5006 27.466 89.645 26.5536 90.1142 25.7408C90.5986 24.9076 91.2931 24.2161 92.1283 23.7352C92.9636 23.2544 93.9104 23.0011 94.8741 23.0006C95.8386 23.0008 96.7861 23.2546 97.6216 23.7366C98.457 24.2185 99.1511 24.9117 99.6341 25.7465ZM5.49913 44.9336L6.875 45H27.4986L27.4307 43.6285C27.2445 41.3676 25.6434 39.716 23.3753 39.5687L21.9994 39.5009H9.62673L26.1227 22.9991L26.0548 21.629C25.948 19.3451 24.2791 17.6949 21.9994 17.5693L20.6236 17.5072L0 17.5014L0.0678549 18.8773C0.24832 21.1165 1.87251 22.8028 4.12182 22.9327L5.49913 23.0006H17.8718L1.37587 39.5023L1.44372 40.8782C1.57943 43.1448 3.21517 44.7863 5.49913 44.9321V44.9336ZM78.4734 21.5265C79.7504 22.8033 80.7634 24.319 81.4545 25.9873C82.1456 27.6555 82.5014 29.4435 82.5014 31.2493C82.5014 33.055 82.1456 34.8431 81.4545 36.5113C80.7634 38.1795 79.7504 39.6953 78.4734 40.972C75.8935 43.5499 72.3956 44.9979 68.7486 44.9979C65.1015 44.9979 61.6036 43.5499 59.0236 40.972C53.6544 35.6028 53.6544 26.8957 59.0236 21.5265C60.2995 20.2503 61.8142 19.2378 63.4813 18.5469C65.1484 17.856 66.9353 17.5003 68.7399 17.5C70.5474 17.4987 72.3375 17.8539 74.0077 18.545C75.6778 19.2362 77.1954 20.2498 78.4734 21.528V21.5265ZM74.5826 25.4203C76.1292 26.968 76.9979 29.0664 76.9979 31.2543C76.9979 33.4423 76.1292 35.5407 74.5826 37.0884C73.0349 38.6349 70.9365 39.5037 68.7486 39.5037C66.5606 39.5037 64.4622 38.6349 62.9145 37.0884C61.3679 35.5407 60.4992 33.4423 60.4992 31.2543C60.4992 29.0664 61.3679 26.968 62.9145 25.4203C64.4622 23.8737 66.5606 23.005 68.7486 23.005C70.9365 23.005 73.0349 23.8737 74.5826 25.4203ZM39.8828 17.5C41.6875 17.5005 43.4744 17.8564 45.1416 18.5476C46.8087 19.2387 48.3233 20.2514 49.599 21.528C54.9697 26.8957 54.9697 35.6043 49.599 40.972C47.0191 43.5499 43.5212 44.9979 39.8741 44.9979C36.227 44.9979 32.7292 43.5499 30.1492 40.972C24.78 35.6028 24.78 26.8957 30.1492 21.5265C31.425 20.2503 32.9398 19.2378 34.6069 18.5469C36.274 17.856 38.0609 17.5003 39.8655 17.5H39.8828ZM45.7082 25.4174C47.2552 26.9651 48.1242 29.0639 48.1242 31.2522C48.1242 33.4405 47.2552 35.5392 45.7082 37.087C44.1605 38.6335 42.0621 39.5022 39.8741 39.5022C37.6862 39.5022 35.5878 38.6335 34.0401 37.087C32.4935 35.5393 31.6248 33.4408 31.6248 31.2529C31.6248 29.0649 32.4935 26.9665 34.0401 25.4188C35.5878 23.8723 37.6862 23.0036 39.8741 23.0036C42.0621 23.0036 44.1605 23.8723 45.7082 25.4188V25.4174Z" fill="#ADB5BD"/>
</g>
<defs>
<clipPath id="clip0_25_5927">
<rect width="122.5" height="60" fill="white"/>
</clipPath>
</defs>
</svg>
