<svg width="60" height="61" viewBox="0 0 60 61" fill="none" xmlns="http://www.w3.org/2000/svg">
<rect y="0.5" width="60" height="60" rx="8" fill="white"/>
<mask id="mask0_25_6013" style="mask-type:luminance" maskUnits="userSpaceOnUse" x="12" y="12" width="36" height="37">
<path d="M12 12.5H48V48.5H12V12.5Z" fill="white"/>
</mask>
<g mask="url(#mask0_25_6013)">
<path d="M44.1695 43.9855C41.2548 39.2153 35.9993 36.0313 30 36.0313M30 36.0313C24.0006 36.0313 18.7451 39.2153 15.8304 43.9855M30 36.0313C34.5822 36.0313 38.2969 32.3166 38.2969 27.7344C38.2969 23.1521 34.5822 19.4375 30 19.4375C25.4177 19.4375 21.7031 23.1521 21.7031 27.7344C21.7031 32.3166 25.4177 36.0313 30 36.0313ZM16.4662 16.3775L15.8775 16.9662C14.2951 18.5486 13.4062 20.6946 13.4062 22.9324V38.0676C13.4062 40.3054 14.2951 42.4514 15.8775 44.0338L16.4662 44.6225C18.0485 46.2048 20.1946 47.0938 22.4324 47.0938H37.5675C39.8053 47.0938 41.9514 46.2048 43.5338 44.6225L44.1225 44.0338C45.7048 42.4514 46.5938 40.3054 46.5938 38.0676V22.9324C46.5938 20.6946 45.7048 18.5486 44.1225 16.9662L43.5338 16.3775C41.9514 14.7952 39.8053 13.9062 37.5675 13.9062H22.4324C20.1946 13.9062 18.0485 14.7952 16.4662 16.3775Z" stroke="#309689" stroke-width="2" stroke-miterlimit="10" stroke-linecap="round" stroke-linejoin="round"/>
</g>
</svg>
