<svg width="60" height="61" viewBox="0 0 60 61" fill="none" xmlns="http://www.w3.org/2000/svg">
<rect y="0.5" width="60" height="60" rx="8" fill="white"/>
<g clip-path="url(#clip0_25_6063)">
<mask id="mask0_25_6063" style="mask-type:luminance" maskUnits="userSpaceOnUse" x="10" y="10" width="40" height="41">
<path d="M50 10.5H10V50.5H50V10.5Z" fill="white"/>
</mask>
<g mask="url(#mask0_25_6063)">
<path d="M37.7361 25.2589L27.2537 35.7412L22.2637 30.7512" stroke="#309689" stroke-width="2" stroke-miterlimit="10" stroke-linecap="round" stroke-linejoin="round"/>
<mask id="mask1_25_6063" style="mask-type:luminance" maskUnits="userSpaceOnUse" x="10" y="10" width="40" height="41">
<path d="M10 10.5H50V50.5H10V10.5Z" fill="white"/>
</mask>
<g mask="url(#mask1_25_6063)">
<path d="M48.4375 30.5C48.4375 40.6827 40.1827 48.9375 30 48.9375C19.8173 48.9375 11.5625 40.6827 11.5625 30.5C11.5625 20.3173 19.8173 12.0625 30 12.0625C40.1827 12.0625 48.4375 20.3173 48.4375 30.5Z" stroke="#309689" stroke-width="2" stroke-miterlimit="10" stroke-linecap="round" stroke-linejoin="round"/>
</g>
</g>
</g>
<defs>
<clipPath id="clip0_25_6063">
<rect width="40" height="40" fill="white" transform="translate(10 10.5)"/>
</clipPath>
</defs>
</svg>
