<svg width="159" height="60" viewBox="0 0 159 60" fill="none" xmlns="http://www.w3.org/2000/svg">
<g clip-path="url(#clip0_25_5930)">
<path fill-rule="evenodd" clip-rule="evenodd" d="M153.946 39.9755C154.041 41.0624 154.91 42.446 156.418 42.446H157.298C157.641 42.446 157.92 42.166 157.92 41.8241V22.4419H157.916C157.899 22.1154 157.629 21.8539 157.298 21.8539H154.568C154.237 21.8539 153.967 22.1154 153.95 22.4419H153.946V24.0168C152.273 21.9545 149.635 21.0984 146.99 21.0984C140.977 21.0984 136.103 25.9765 136.103 31.9943C136.103 38.0124 140.977 42.8906 146.99 42.8906C149.635 42.8906 152.518 41.864 153.946 39.9731V39.9755ZM147 39.0772C143.176 39.0772 140.076 35.9063 140.076 31.9943C140.076 28.0829 143.176 24.912 147 24.912C150.825 24.912 153.925 28.0829 153.925 31.9943C153.925 35.9063 150.825 39.0772 147 39.0772Z" fill="#ADB5BD"/>
<path fill-rule="evenodd" clip-rule="evenodd" d="M132.649 30.6126C132.649 24.9591 129.086 21.1451 123.403 21.1451C120.69 21.1451 118.466 22.7151 117.68 24.0637C117.511 23.0092 116.951 21.9008 115.216 21.9008H114.332C113.99 21.9008 113.711 22.181 113.711 22.5229V40.024C113.711 40.0246 113.711 40.0258 113.711 40.0267V41.9067H113.714C113.732 42.2327 114.002 42.4945 114.332 42.4945H117.063C117.105 42.4945 117.146 42.4895 117.186 42.4818C117.204 42.4783 117.22 42.4712 117.238 42.4662C117.258 42.4599 117.28 42.4551 117.299 42.4472C117.323 42.4371 117.345 42.4236 117.368 42.4109C117.379 42.4041 117.391 42.3994 117.401 42.3923C117.428 42.3747 117.453 42.3535 117.478 42.332C117.482 42.328 117.486 42.3253 117.49 42.3216C117.517 42.2953 117.542 42.2663 117.564 42.2362C117.632 42.1423 117.674 42.0287 117.681 41.9067H117.685V30.4571C117.685 27.4208 120.144 24.9591 123.179 24.9591C126.213 24.9591 128.673 27.4208 128.673 30.4571L128.675 40.0274L128.676 40.024C128.676 40.0325 128.677 40.0412 128.677 40.0503V41.9067H128.681C128.699 42.2327 128.969 42.4945 129.299 42.4945H132.03C132.072 42.4945 132.112 42.4895 132.152 42.4818C132.168 42.4788 132.183 42.4723 132.199 42.4679C132.221 42.4614 132.244 42.4558 132.266 42.4472C132.288 42.4379 132.308 42.425 132.329 42.4131C132.342 42.4058 132.356 42.4006 132.368 42.3923C132.393 42.3757 132.417 42.3557 132.439 42.3359C132.445 42.3305 132.451 42.3266 132.457 42.3212C132.483 42.2962 132.506 42.2692 132.527 42.2409C132.528 42.2388 132.53 42.2371 132.532 42.2349C132.599 42.1419 132.64 42.0295 132.647 41.9082C132.647 41.9074 132.648 41.9067 132.648 41.9067H132.651L132.649 30.6126Z" fill="#ADB5BD"/>
<path fill-rule="evenodd" clip-rule="evenodd" d="M104.21 39.9754C104.305 41.0624 105.175 42.4459 106.681 42.4459H107.562C107.904 42.4459 108.184 42.1659 108.184 41.824V22.4419H108.18C108.162 22.1154 107.892 21.8539 107.562 21.8539H104.832C104.501 21.8539 104.232 22.1154 104.213 22.4419H104.21V24.0168C102.537 21.9545 99.8987 21.0984 97.2534 21.0984C91.2406 21.0984 86.3665 25.9765 86.3665 31.9943C86.3665 38.0124 91.2406 42.8906 97.2534 42.8906C99.8987 42.8906 102.782 41.8641 104.21 39.973L104.21 39.9754ZM97.264 39.0772C93.4402 39.0772 90.3399 35.9064 90.3399 31.9943C90.3399 28.0829 93.4402 24.912 97.264 24.912C101.088 24.912 104.188 28.0829 104.188 31.9943C104.188 35.9064 101.088 39.0772 97.264 39.0772Z" fill="#ADB5BD"/>
<path fill-rule="evenodd" clip-rule="evenodd" d="M70.2175 37.1996C72.0405 38.4635 74.0304 39.0774 75.9426 39.0774C77.7643 39.0774 79.6477 38.1322 79.6477 36.4871C79.6477 34.2908 75.5439 33.949 72.9655 33.072C70.3865 32.195 68.1653 30.382 68.1653 27.4461C68.1653 22.9536 72.1652 21.0981 75.8984 21.0981C78.2638 21.0981 80.7043 21.8787 82.2865 22.9969C82.8314 23.4101 82.4996 23.8846 82.4996 23.8846L80.9892 26.0434C80.8195 26.2865 80.5226 26.4966 80.0966 26.2334C79.6705 25.9704 78.176 24.9118 75.8984 24.9118C73.6206 24.9118 72.2486 25.9645 72.2486 27.2693C72.2486 28.8339 74.0318 29.326 76.1205 29.8593C79.7604 30.8412 83.731 32.0214 83.731 36.4871C83.731 40.4453 80.0314 42.8915 75.9426 42.8915C72.8442 42.8915 70.2061 42.0075 67.9936 40.3827C67.5327 39.921 67.8545 39.4923 67.8545 39.4923L69.3575 37.3445C69.6634 36.9429 70.0489 37.0829 70.2175 37.1996Z" fill="#ADB5BD"/>
<path fill-rule="evenodd" clip-rule="evenodd" d="M59.7191 39.9754C59.8146 41.0624 60.684 42.4459 62.1901 42.4459H63.0715C63.4131 42.4459 63.6931 42.1659 63.6931 41.824V22.4419H63.6893C63.6714 22.1154 63.4016 21.8539 63.0715 21.8539H60.3407C60.0104 21.8539 59.7407 22.1154 59.7224 22.4419H59.7191V24.0168C58.0459 21.9545 55.408 21.0984 52.7627 21.0984C46.7499 21.0984 41.8755 25.9765 41.8755 31.9943C41.8755 38.0124 46.7499 42.8906 52.7627 42.8906C55.408 42.8906 58.2908 41.8641 59.7187 39.973L59.7191 39.9754ZM52.7734 39.0772C48.9492 39.0772 45.8491 35.9064 45.8491 31.9943C45.8491 28.0829 48.9492 24.912 52.7734 24.912C56.5974 24.912 59.6972 28.0829 59.6972 31.9943C59.6972 35.9064 56.5974 39.0772 52.7734 39.0772Z" fill="#ADB5BD"/>
<path fill-rule="evenodd" clip-rule="evenodd" d="M26.6119 32.7351C22.5656 32.7351 19.2852 36.0153 19.2852 40.0621C19.2852 44.1085 22.5656 47.3888 26.6119 47.3888C30.6584 47.3888 33.9386 44.1085 33.9386 40.0621C33.9386 36.0153 30.6584 32.7351 26.6119 32.7351ZM7.57668 32.7358C3.5303 32.7358 0.25 36.0153 0.25 40.0621C0.25 44.1085 3.5303 47.3888 7.57668 47.3888C11.6232 47.3888 14.9037 44.1085 14.9037 40.0621C14.9037 36.0153 11.6232 32.7358 7.57668 32.7358ZM24.4209 23.5765C24.4209 27.6232 21.1408 30.9038 17.0943 30.9038C13.0478 30.9038 9.76767 27.6232 9.76767 23.5765C9.76767 19.5306 13.0478 16.25 17.0943 16.25C21.1408 16.25 24.4209 19.5306 24.4209 23.5765Z" fill="#ADB5BD"/>
</g>
<defs>
<clipPath id="clip0_25_5930">
<rect width="158.75" height="60" fill="white" transform="translate(0.25)"/>
</clipPath>
</defs>
</svg>
