<svg width="141" height="60" viewBox="0 0 141 60" fill="none" xmlns="http://www.w3.org/2000/svg">
<g clip-path="url(#clip0_25_5929)">
<path fill-rule="evenodd" clip-rule="evenodd" d="M139.951 38.2042C134.128 48.0758 124.907 45.2114 122.138 42.9686C120.959 43.7683 118.892 45.5212 116.137 45.3188C110.268 44.888 108.166 36.5008 108.166 36.5008C108.208 36.5344 106.418 37.1187 105.45 37.1082C105.437 39.5678 103.311 45.4433 97.5734 45.3681C91.1345 45.2841 89.8255 35.6914 89.8255 35.6914C89.8255 35.6914 89.1848 36.5811 86.7485 37.4674C86.8711 35.5777 86.7814 45.0805 79.0642 45.2202C72.9632 45.3307 71.3164 35.5435 71.3164 35.5435C71.3164 35.5435 70.258 36.6429 68.2068 37.0242C68.3372 35.1038 68.1253 45.2524 60.4071 45.2202C55.1913 45.1985 53.4089 39.1912 53.5475 38.3574C53.7244 37.2948 51.7848 45.3696 46.7183 45.2438C44.6276 45.1824 43.0689 43.6686 42.0908 41.6505C40.7815 43.1487 38.8805 45.2438 36.748 45.2438C32.9199 45.2438 31.2324 42.0421 31.5182 32.8974C31.5426 31.8128 31.4643 31.3862 30.3861 31.2239C29.7389 31.116 29.0762 30.9115 28.3749 30.8037C28.1502 31.5538 26.2439 44.9998 19.6888 45.255C17.4897 45.3406 16.2872 43.4356 15.2997 42.0217C13.7859 44.0243 11.7877 45.3188 8.94099 45.3188C4.11892 45.3188 0.833496 41.4206 0.833496 36.6119C0.833496 31.8031 4.11892 27.9053 8.94099 27.9053C9.79358 27.9053 10.0329 28.0275 10.8118 28.2547C9.21 13.6706 12.9929 11.3913 16.302 11.3913C19.479 11.3913 24.9066 18.765 17.2696 37.4688C18.9651 43.0477 22.6205 42.7321 24.377 31.2478C24.7345 28.9133 23.7786 25.7632 25.2654 25.3235C27.9833 24.52 28.2717 26.9308 29.5461 27.3325C30.8936 27.757 31.6801 27.7155 32.9737 27.9857C35.1841 28.4173 36.0467 29.6048 35.7774 32.2495C35.454 35.5959 34.8882 40.4665 36.6132 41.0601C37.8571 41.4913 40.1283 38.9117 40.5268 37.5002C40.9252 36.0887 41.0084 35.6056 41.0438 34.5703C41.0977 32.3577 41.1654 30.7357 41.5427 29.0624C41.7042 28.4148 41.8882 27.986 42.6208 27.9567C43.2237 27.9414 44.326 27.7598 44.8113 28.1375C45.4581 28.6235 45.3773 29.1167 45.303 30.4145C44.5508 48.9191 50.3405 39.6815 52.0667 32.2849C51.452 23.9211 51.8741 11.5444 57.1152 11.3369C59.841 11.2289 61.046 13.4126 61.1786 15.0425C61.5535 19.6459 59.4534 27.2715 56.6915 32.3997C55.113 42.8634 63.5931 44.9323 64.9492 36.5802C62.7305 35.5253 60.3327 31.2555 62.2839 29.1747C63.3788 28.0069 67.9363 29.6845 68.0109 33.3435C70.2464 32.7456 70.5449 31.4834 70.5759 31.6925C69.9614 23.3287 70.5313 11.5445 75.7728 11.337C78.4983 11.229 79.7031 13.4127 79.8357 15.0426C80.2106 19.646 78.1105 27.2716 75.349 32.3998C73.7703 42.8634 82.2505 44.9325 83.6063 36.5804C81.9636 36.2634 78.4961 31.7219 80.4968 29.1748C81.566 27.8136 86.1068 30.6442 86.6152 33.4646C88.7627 32.8569 89.0544 31.6348 89.0852 31.8405C88.4705 23.477 89.0405 11.6928 94.282 11.4852C97.0074 11.3772 98.2123 13.5609 98.3448 15.1908C98.7198 19.7943 96.6197 27.42 93.8578 32.5482C92.2794 43.0119 100.76 45.0805 102.116 36.7283C99.8583 36.3525 96.6501 31.5572 99.2322 29.1041C100.264 28.1239 104.206 30.6683 105.128 33.571C106.41 33.5217 107.208 33.0795 107.38 33.0349C105.333 23.2163 106.856 11.4355 112.495 11.3371C115.542 11.284 118.522 12.9847 117.214 22.3257C115.966 31.2382 111.479 34.9784 111.489 35.0356C111.75 36.1034 114.053 45.039 119.851 40.3242C119.551 39.6446 119.25 38.9503 119.082 38.1092C118.121 33.2096 120.009 27.6755 125.139 26.7811C128.079 26.2686 130.848 27.6998 131.286 30.9262C132.006 36.2057 127.239 40.0291 125.426 40.8585C124.614 40.3972 132.786 45.6383 137.636 35.135C137.917 34.5353 138.256 34.5861 138.696 34.8952C139.006 35.1135 140.773 36.7874 139.951 38.2042ZM12.4486 35.3147C12.2018 34.5769 11.6954 32.9513 11.5163 32.2469C10.5301 31.3893 9.82613 31.25 8.56017 31.25C5.74683 31.25 4.09094 33.8511 4.09094 36.6559C4.09094 39.4606 5.89491 42.0621 8.70827 42.0621C11.1464 42.0621 13.002 40.4044 13.5681 38.0577C13.1718 37.1429 12.7788 36.3021 12.4486 35.3147ZM16.2331 15.2518C14.2563 15.2518 13.5857 19.9675 13.7159 23.9905C13.831 27.5472 14.8248 30.6785 15.3404 32.0816C15.4713 32.2574 15.447 32.143 15.5639 32.3294C18.9962 24.809 17.5726 15.2518 16.2331 15.2518ZM57.3975 15.3999C54.8426 15.1069 54.8591 25.7501 55.1763 28.1375C56.5032 26.0148 58.8083 15.9715 57.3975 15.3999ZM76.0546 15.3999C73.4997 15.1069 73.5162 25.7501 73.8335 28.1375C75.1603 26.0148 77.4656 15.9715 76.0546 15.3999ZM94.564 15.548C92.0088 15.255 92.0253 25.8983 92.3427 28.2858C93.6695 26.1629 95.9747 16.1195 94.564 15.548ZM112.777 14.7769C108.796 15.5763 109.723 28.8487 110.328 31.1765C115.017 24.7362 115.113 14.535 112.777 14.7769ZM127.696 31.3629C127.493 30.5166 126.481 30.0644 125.783 30.1758C123.784 30.4488 121.845 32.9381 122.596 36.728C122.763 37.572 123.181 38.349 123.174 38.3232C127.647 35.3222 128.027 32.9574 127.696 31.3629ZM43.4044 25.0272C42.8332 25.0273 42.2747 24.858 41.7997 24.5407C41.3247 24.2234 40.9543 23.7724 40.7356 23.2446C40.5169 22.7169 40.4597 22.1361 40.5712 21.5758C40.6825 21.0155 40.9576 20.5009 41.3615 20.0969C41.7654 19.6929 42.28 19.4178 42.8403 19.3063C43.4006 19.1949 43.9814 19.2521 44.5092 19.4707C45.037 19.6893 45.488 20.0595 45.8054 20.5345C46.1227 21.0095 46.2921 21.568 46.2921 22.1392C46.2921 22.5185 46.2175 22.894 46.0723 23.2444C45.9273 23.5947 45.7146 23.9131 45.4464 24.1813C45.1782 24.4495 44.8599 24.6622 44.5095 24.8073C44.1592 24.9525 43.7837 25.0272 43.4044 25.0272Z" fill="#ADB5BD"/>
</g>
<defs>
<clipPath id="clip0_25_5929">
<rect width="140" height="60" fill="white" transform="translate(0.833496)"/>
</clipPath>
</defs>
</svg>
