<svg width="74" height="28" viewBox="0 0 74 28" fill="none" xmlns="http://www.w3.org/2000/svg">
<path d="M13.3472 18.468C12.9739 18.468 12.6006 18.328 12.3206 18.048L11.5623 17.2897C11.2239 16.9514 11.2239 16.3914 11.5623 16.053C11.9006 15.7147 12.4606 15.7147 12.7989 16.053L13.3589 16.613L15.2372 14.8864C15.5872 14.5597 16.1472 14.583 16.4739 14.933C16.8006 15.283 16.7772 15.843 16.4272 16.1697L14.3506 18.083C14.0589 18.3397 13.7089 18.468 13.3472 18.468Z" fill="white"/>
<path d="M18.6672 26.5417H9.33392C3.94392 26.5417 2.94059 24.0334 2.68392 21.5951L1.80892 12.2501C1.68059 11.0251 1.64559 9.21672 2.85892 7.86339C3.90892 6.69672 5.64726 6.13672 8.16726 6.13672H19.8339C22.3656 6.13672 24.1039 6.70838 25.1422 7.86339C26.3556 9.21672 26.3206 11.0251 26.1922 12.2617L25.3172 21.5834C25.0606 24.0334 24.0572 26.5417 18.6672 26.5417ZM8.16726 7.87505C6.19559 7.87505 4.84226 8.26005 4.15392 9.03005C3.58226 9.66005 3.39559 10.6284 3.54726 12.0751L4.42226 21.4201C4.62059 23.2634 5.12226 24.7917 9.33392 24.7917H18.6672C22.8672 24.7917 23.3806 23.2634 23.5789 21.4084L24.4539 12.0867C24.6056 10.6284 24.4189 9.66005 23.8472 9.03005C23.1589 8.26005 21.8056 7.87505 19.8339 7.87505H8.16726Z" fill="white"/>
<path d="M18.6672 7.87467C18.1889 7.87467 17.7922 7.47801 17.7922 6.99967V6.06634C17.7922 3.98967 17.7922 3.20801 14.9339 3.20801H13.0672C10.2089 3.20801 10.2089 3.98967 10.2089 6.06634V6.99967C10.2089 7.47801 9.81226 7.87467 9.33392 7.87467C8.85559 7.87467 8.45892 7.47801 8.45892 6.99967V6.06634C8.45892 4.01301 8.45892 1.45801 13.0672 1.45801H14.9339C19.5422 1.45801 19.5422 4.01301 19.5422 6.06634V6.99967C19.5422 7.47801 19.1456 7.87467 18.6672 7.87467Z" fill="white"/>
<path d="M18.6789 16.7881C18.2822 16.7881 17.9322 16.5198 17.8272 16.1231C17.7106 15.6564 17.9906 15.1781 18.4572 15.0614C20.7322 14.4898 22.8439 13.4981 24.7339 12.1214C25.1189 11.8414 25.6672 11.9231 25.9589 12.3198C26.2389 12.7048 26.1572 13.2531 25.7606 13.5448C23.6839 15.0498 21.3739 16.1348 18.8772 16.7648C18.8189 16.7764 18.7489 16.7881 18.6789 16.7881Z" fill="white"/>
<path d="M9.33418 16.8233C9.26418 16.8233 9.19418 16.8117 9.12418 16.8C6.77918 16.2283 4.57418 15.2367 2.55584 13.86C2.15918 13.5917 2.05418 13.0433 2.32251 12.6467C2.59084 12.25 3.13918 12.145 3.53584 12.4133C5.37918 13.6733 7.38584 14.5717 9.53251 15.0967C9.99918 15.2133 10.2908 15.68 10.1742 16.1583C10.0925 16.555 9.73084 16.8233 9.33418 16.8233Z" fill="white"/>
<path d="M45.1733 6.95455H47.7869V17.1818C47.7822 18.1193 47.5833 18.9266 47.1903 19.6037C46.7973 20.276 46.2481 20.7945 45.5426 21.1591C44.8419 21.5189 44.0251 21.6989 43.0923 21.6989C42.2401 21.6989 41.473 21.5473 40.7912 21.2443C40.1141 20.9366 39.5767 20.482 39.179 19.8807C38.7813 19.2794 38.5824 18.5312 38.5824 17.6364H41.2031C41.2079 18.0294 41.2931 18.3679 41.4588 18.652C41.6293 18.9361 41.8636 19.1539 42.1619 19.3054C42.4602 19.4569 42.8035 19.5327 43.1918 19.5327C43.6132 19.5327 43.9706 19.4451 44.2642 19.2699C44.5578 19.09 44.7803 18.8248 44.9318 18.4744C45.0881 18.1241 45.1686 17.6932 45.1733 17.1818V6.95455ZM55.2905 21.7131C54.2251 21.7131 53.3018 21.4787 52.5206 21.0099C51.7393 20.5412 51.1333 19.8854 50.7024 19.0426C50.2763 18.1998 50.0632 17.215 50.0632 16.0881C50.0632 14.9612 50.2763 13.974 50.7024 13.1264C51.1333 12.2789 51.7393 11.6207 52.5206 11.152C53.3018 10.6832 54.2251 10.4489 55.2905 10.4489C56.3558 10.4489 57.2791 10.6832 58.0604 11.152C58.8416 11.6207 59.4453 12.2789 59.8714 13.1264C60.3023 13.974 60.5178 14.9612 60.5178 16.0881C60.5178 17.215 60.3023 18.1998 59.8714 19.0426C59.4453 19.8854 58.8416 20.5412 58.0604 21.0099C57.2791 21.4787 56.3558 21.7131 55.2905 21.7131ZM55.3047 19.6534C55.8823 19.6534 56.3653 19.4948 56.7536 19.1776C57.1418 18.8556 57.4306 18.4247 57.62 17.8849C57.8142 17.3452 57.9112 16.7438 57.9112 16.081C57.9112 15.4134 57.8142 14.8097 57.62 14.2699C57.4306 13.7254 57.1418 13.2921 56.7536 12.9702C56.3653 12.6482 55.8823 12.4872 55.3047 12.4872C54.7128 12.4872 54.2204 12.6482 53.8274 12.9702C53.4392 13.2921 53.148 13.7254 52.9538 14.2699C52.7644 14.8097 52.6697 15.4134 52.6697 16.081C52.6697 16.7438 52.7644 17.3452 52.9538 17.8849C53.148 18.4247 53.4392 18.8556 53.8274 19.1776C54.2204 19.4948 54.7128 19.6534 55.3047 19.6534ZM62.8136 21.5V6.95455H65.3846V12.3949H65.4911C65.6237 12.1297 65.8107 11.848 66.0522 11.5497C66.2937 11.2467 66.6204 10.9886 67.0323 10.7756C67.4442 10.5578 67.9698 10.4489 68.609 10.4489C69.4518 10.4489 70.2118 10.6643 70.8888 11.0952C71.5707 11.5213 72.1104 12.1534 72.5082 12.9915C72.9106 13.8248 73.1119 14.8475 73.1119 16.0597C73.1119 17.2576 72.9154 18.2756 72.5224 19.1136C72.1294 19.9517 71.5943 20.5909 70.9173 21.0312C70.2402 21.4716 69.4731 21.6918 68.6161 21.6918C67.9911 21.6918 67.4727 21.5876 67.0607 21.3793C66.6488 21.1709 66.3174 20.92 66.0664 20.6264C65.8202 20.3281 65.6284 20.0464 65.4911 19.7812H65.342V21.5H62.8136ZM65.3349 16.0455C65.3349 16.7509 65.4343 17.3688 65.6332 17.8991C65.8368 18.4295 66.128 18.8437 66.5067 19.142C66.8903 19.4356 67.3543 19.5824 67.8988 19.5824C68.467 19.5824 68.9428 19.4309 69.3263 19.1278C69.7099 18.8201 69.9987 18.401 70.1928 17.8707C70.3917 17.3357 70.4911 16.7273 70.4911 16.0455C70.4911 15.3684 70.3941 14.767 70.1999 14.2415C70.0058 13.7159 69.717 13.304 69.3335 13.0057C68.9499 12.7074 68.4717 12.5582 67.8988 12.5582C67.3496 12.5582 66.8832 12.7027 66.4996 12.9915C66.1161 13.2803 65.8249 13.6851 65.6261 14.206C65.4319 14.7268 65.3349 15.34 65.3349 16.0455Z" fill="white"/>
</svg>
