<svg width="40" height="41" viewBox="0 0 40 41" fill="none" xmlns="http://www.w3.org/2000/svg">
<g clip-path="url(#clip0_2002_1710)">
<path d="M14.1186 28.7352C15.4181 28.7352 16.4715 27.6817 16.4715 26.3822C16.4715 25.0827 15.4181 24.0293 14.1186 24.0293C12.8191 24.0293 11.7656 25.0827 11.7656 26.3822C11.7656 27.6817 12.8191 28.7352 14.1186 28.7352Z" stroke="#309689" stroke-width="2" stroke-miterlimit="10"/>
<path d="M14.1174 33.4418C18.0159 33.4418 21.1762 30.2815 21.1762 26.383C21.1762 22.4846 18.0159 19.3242 14.1174 19.3242C10.2189 19.3242 7.05859 22.4846 7.05859 26.383C7.05859 30.2815 10.2189 33.4418 14.1174 33.4418Z" stroke="#309689" stroke-width="2" stroke-miterlimit="10"/>
<path d="M1.17578 26.383C1.17578 19.2358 6.96973 13.4418 14.1169 13.4418C18.66 13.4418 22.6562 15.7829 24.9652 19.3242C25.6669 20.4005 26.2128 21.5876 26.5709 22.8536L38.3345 11.0898" stroke="#309689" stroke-width="2" stroke-miterlimit="10"/>
<path d="M35.0325 5.46722C29.9786 0.41327 21.7847 0.41327 16.7309 5.46722L4.96619 17.2319C-0.0876868 22.2857 -0.0876868 30.4796 4.96619 35.5334C10.0201 40.5873 18.2139 40.5873 23.2678 35.5334L35.0325 23.7687C40.0864 18.715 40.0864 10.521 35.0325 5.46722Z" stroke="#309689" stroke-width="2" stroke-miterlimit="10"/>
</g>
<defs>
<clipPath id="clip0_2002_1710">
<rect width="40" height="40" fill="white" transform="translate(0 0.5)"/>
</clipPath>
</defs>
</svg>
