<svg width="28" height="28" viewBox="0 0 28 28" fill="none" xmlns="http://www.w3.org/2000/svg">
<g clip-path="url(#clip0_25_5876)">
<path d="M25.6672 19.7402V23.2402C25.6685 23.5651 25.6019 23.8867 25.4718 24.1844C25.3416 24.4821 25.1507 24.7493 24.9112 24.969C24.6718 25.1887 24.3892 25.3559 24.0814 25.46C23.7736 25.5641 23.4474 25.6027 23.1238 25.5735C19.5338 25.1834 16.0853 23.9567 13.0555 21.9918C10.2366 20.2006 7.84672 17.8107 6.05549 14.9918C4.0838 11.9482 2.85678 8.48298 2.47382 4.87682C2.44467 4.5542 2.48301 4.22904 2.58641 3.92205C2.68981 3.61506 2.85599 3.33296 3.07439 3.09371C3.29278 2.85447 3.5586 2.66331 3.85491 2.53243C4.15123 2.40154 4.47156 2.33379 4.79549 2.33349H8.29549C8.86168 2.32791 9.41058 2.52841 9.83988 2.89761C10.2692 3.2668 10.5496 3.77951 10.6288 4.34015C10.7766 5.46023 11.0505 6.56 11.4455 7.61849C11.6025 8.03606 11.6364 8.48989 11.5434 8.92618C11.4503 9.36247 11.2342 9.76295 10.9205 10.0802L9.43883 11.5618C11.0996 14.4826 13.518 16.901 16.4388 18.5618L17.9205 17.0802C18.2377 16.7665 18.6382 16.5503 19.0745 16.4573C19.5108 16.3642 19.9646 16.3982 20.3822 16.5552C21.4406 16.9501 22.5404 17.2241 23.6605 17.3718C24.2272 17.4518 24.7448 17.7372 25.1148 18.1739C25.4848 18.6106 25.6814 19.168 25.6672 19.7402Z" stroke="#309689" stroke-width="3" stroke-linecap="round" stroke-linejoin="round"/>
</g>
<defs>
<clipPath id="clip0_25_5876">
<rect width="28" height="28" fill="white"/>
</clipPath>
</defs>
</svg>
